name Walk6.mot
datacolumns 19
datarows 30
range 1.71300000 1.74200000
endheader

                time	   L_ground_force_vx	   L_ground_force_vy	   L_ground_force_vz	   L_ground_force_px	   L_ground_force_py	   L_ground_force_pz	   R_ground_force_vx	   R_ground_force_vy	   R_ground_force_vz	   R_ground_force_px	   R_ground_force_py	   R_ground_force_pz	   L_ground_torque_x	   L_ground_torque_y	   L_ground_torque_z	   R_ground_torque_x	   R_ground_torque_y	   R_ground_torque_z	
          1.71300000	          0.00000000	          0.00000000	          0.00000000	          0.00000000	          0.00000000	          0.00000000	        -32.37757561	        542.69811104	        -21.36734183	          0.25194117	          0.00000000	          0.07714960	          0.00000000	          0.00000000	          0.00000000	          0.00000000	          0.45827815	          0.00000000	
          1.71400000	          0.00000000	          0.00000000	          0.00000000	          0.00000000	          0.00000000	          0.00000000	        -32.05709247	        542.95028582	        -21.38748612	          0.25252408	          0.00000000	          0.07716688	          0.00000000	          0.00000000	          0.00000000	          0.00000000	          0.46870330	          0.00000000	
          1.71500000	          0.00000000	          0.00000000	          0.00000000	          0.00000000	          0.00000000	          0.00000000	        -31.75450868	        543.32676819	        -21.40816613	          0.25312149	          0.00000000	          0.07722776	          0.00000000	          0.00000000	          0.00000000	          0.00000000	          0.47745030	          0.00000000	
          1.71600000	          0.00000000	          0.00000000	          0.00000000	          0.00000000	          0.00000000	          0.00000000	        -31.45668336	        543.74088771	        -21.42761461	          0.25374286	          0.00000000	          0.07729552	          0.00000000	          0.00000000	          0.00000000	          0.00000000	          0.48612459	          0.00000000	
          1.71700000	          0.00000000	          0.00000000	          0.00000000	          0.00000000	          0.00000000	          0.00000000	        -31.15647393	        544.09368807	        -21.45146940	          0.25439024	          0.00000000	          0.07733474	          0.00000000	          0.00000000	          0.00000000	          0.00000000	          0.49624525	          0.00000000	
          1.71800000	          0.00000000	          0.00000000	          0.00000000	          0.00000000	          0.00000000	          0.00000000	        -30.85424518	        544.31332105	        -21.48518988	          0.25503908	          0.00000000	          0.07731053	          0.00000000	          0.00000000	          0.00000000	          0.00000000	          0.50761730	          0.00000000	
          1.71900000	          0.00000000	          0.00000000	          0.00000000	          0.00000000	          0.00000000	          0.00000000	        -30.55593747	        544.37236371	        -21.52388389	          0.25564566	          0.00000000	          0.07718543	          0.00000000	          0.00000000	          0.00000000	          0.00000000	          0.52026445	          0.00000000	
          1.72000000	          0.00000000	          0.00000000	          0.00000000	          0.00000000	          0.00000000	          0.00000000	        -30.27099935	        544.31163255	        -21.55410477	          0.25617379	          0.00000000	          0.07694382	          0.00000000	          0.00000000	          0.00000000	          0.00000000	          0.53475959	          0.00000000	
          1.72100000	          0.00000000	          0.00000000	          0.00000000	          0.00000000	          0.00000000	          0.00000000	        -30.00154936	        544.23053082	        -21.56558073	          0.25661111	          0.00000000	          0.07662149	          0.00000000	          0.00000000	          0.00000000	          0.00000000	          0.55135701	          0.00000000	
          1.72200000	          0.00000000	          0.00000000	          0.00000000	          0.00000000	          0.00000000	          0.00000000	        -29.73393976	        544.24106579	        -21.56050220	          0.25698865	          0.00000000	          0.07630007	          0.00000000	          0.00000000	          0.00000000	          0.00000000	          0.57056772	          0.00000000	
          1.72300000	          0.00000000	          0.00000000	          0.00000000	          0.00000000	          0.00000000	          0.00000000	        -29.45274564	        544.42085901	        -21.55130472	          0.25737586	          0.00000000	          0.07605925	          0.00000000	          0.00000000	          0.00000000	          0.00000000	          0.59214520	          0.00000000	
          1.72400000	          0.00000000	          0.00000000	          0.00000000	          0.00000000	          0.00000000	          0.00000000	        -29.15824263	        544.77655483	        -21.54767075	          0.25783992	          0.00000000	          0.07593101	          0.00000000	          0.00000000	          0.00000000	          0.00000000	          0.61247861	          0.00000000	
          1.72500000	          0.00000000	          0.00000000	          0.00000000	          0.00000000	          0.00000000	          0.00000000	        -28.85975834	        545.25858340	        -21.54587169	          0.25841416	          0.00000000	          0.07590094	          0.00000000	          0.00000000	          0.00000000	          0.00000000	          0.62756618	          0.00000000	
          1.72600000	          0.00000000	          0.00000000	          0.00000000	          0.00000000	          0.00000000	          0.00000000	        -28.56097457	        545.81347558	        -21.53659326	          0.25908433	          0.00000000	          0.07593250	          0.00000000	          0.00000000	          0.00000000	          0.00000000	          0.63936983	          0.00000000	
          1.72700000	          0.00000000	          0.00000000	          0.00000000	          0.00000000	          0.00000000	          0.00000000	        -28.26196925	        546.39332641	        -21.52344204	          0.25979119	          0.00000000	          0.07597596	          0.00000000	          0.00000000	          0.00000000	          0.00000000	          0.65400855	          0.00000000	
          1.72800000	          0.00000000	          0.00000000	          0.00000000	          0.00000000	          0.00000000	          0.00000000	        -27.96757053	        546.93884682	        -21.52197851	          0.26046680	          0.00000000	          0.07597286	          0.00000000	          0.00000000	          0.00000000	          0.00000000	          0.67333046	          0.00000000	
          1.72900000	          0.00000000	          0.00000000	          0.00000000	          0.00000000	          0.00000000	          0.00000000	        -27.68253368	        547.40781986	        -21.54009717	          0.26108381	          0.00000000	          0.07588517	          0.00000000	          0.00000000	          0.00000000	          0.00000000	          0.69435148	          0.00000000	
          1.73000000	          0.00000000	          0.00000000	          0.00000000	          0.00000000	          0.00000000	          0.00000000	        -27.40134140	        547.81943492	        -21.57347498	          0.26166950	          0.00000000	          0.07573095	          0.00000000	          0.00000000	          0.00000000	          0.00000000	          0.71574012	          0.00000000	
          1.73100000	          0.00000000	          0.00000000	          0.00000000	          0.00000000	          0.00000000	          0.00000000	        -27.11371272	        548.23873347	        -21.61646845	          0.26226908	          0.00000000	          0.07556600	          0.00000000	          0.00000000	          0.00000000	          0.00000000	          0.73676968	          0.00000000	
          1.73200000	          0.00000000	          0.00000000	          0.00000000	          0.00000000	          0.00000000	          0.00000000	        -26.82082312	        548.71832404	        -21.66403742	          0.26289317	          0.00000000	          0.07542649	          0.00000000	          0.00000000	          0.00000000	          0.00000000	          0.75362447	          0.00000000	
          1.73300000	          0.00000000	          0.00000000	          0.00000000	          0.00000000	          0.00000000	          0.00000000	        -26.53519596	        549.26946625	        -21.70780630	          0.26350446	          0.00000000	          0.07531795	          0.00000000	          0.00000000	          0.00000000	          0.00000000	          0.76445004	          0.00000000	
          1.73400000	          0.00000000	          0.00000000	          0.00000000	          0.00000000	          0.00000000	          0.00000000	        -26.26269606	        549.88194151	        -21.73983956	          0.26406465	          0.00000000	          0.07524589	          0.00000000	          0.00000000	          0.00000000	          0.00000000	          0.77356566	          0.00000000	
          1.73500000	          0.00000000	          0.00000000	          0.00000000	          0.00000000	          0.00000000	          0.00000000	        -25.99525594	        550.54104313	        -21.75979076	          0.26458761	          0.00000000	          0.07521229	          0.00000000	          0.00000000	          0.00000000	          0.00000000	          0.78661910	          0.00000000	
          1.73600000	          0.00000000	          0.00000000	          0.00000000	          0.00000000	          0.00000000	          0.00000000	        -25.72536777	        551.21933142	        -21.77659634	          0.26512035	          0.00000000	          0.07519362	          0.00000000	          0.00000000	          0.00000000	          0.00000000	          0.80568496	          0.00000000	
          1.73700000	          0.00000000	          0.00000000	          0.00000000	          0.00000000	          0.00000000	          0.00000000	        -25.46009074	        551.88656184	        -21.80325469	          0.26567781	          0.00000000	          0.07515702	          0.00000000	          0.00000000	          0.00000000	          0.00000000	          0.82914341	          0.00000000	
          1.73800000	          0.00000000	          0.00000000	          0.00000000	          0.00000000	          0.00000000	          0.00000000	        -25.21318130	        552.52780624	        -21.84540332	          0.26623036	          0.00000000	          0.07508600	          0.00000000	          0.00000000	          0.00000000	          0.00000000	          0.85180399	          0.00000000	
          1.73900000	          0.00000000	          0.00000000	          0.00000000	          0.00000000	          0.00000000	          0.00000000	        -24.98942079	        553.14474341	        -21.89383493	          0.26675261	          0.00000000	          0.07498029	          0.00000000	          0.00000000	          0.00000000	          0.00000000	          0.86742169	          0.00000000	
          1.74000000	          0.00000000	          0.00000000	          0.00000000	          0.00000000	          0.00000000	          0.00000000	        -24.78751947	        553.75745238	        -21.93387251	          0.26725467	          0.00000000	          0.07484431	          0.00000000	          0.00000000	          0.00000000	          0.00000000	          0.87474493	          0.00000000	
          1.74100000	          0.00000000	          0.00000000	          0.00000000	          0.00000000	          0.00000000	          0.00000000	        -24.61272773	        554.39318371	        -21.95960327	          0.26775837	          0.00000000	          0.07468057	          0.00000000	          0.00000000	          0.00000000	          0.00000000	          0.87799602	          0.00000000	
          1.74200000	          0.00000000	          0.00000000	          0.00000000	          0.00000000	          0.00000000	          0.00000000	        -24.47496041	        555.06740079	        -21.97328057	          0.26826376	          0.00000000	          0.07449756	          0.00000000	          0.00000000	          0.00000000	          0.00000000	          0.88093067	          0.00000000	
